<svg width="131" height="36" viewBox="0 0 131 36" fill="none" xmlns="http://www.w3.org/2000/svg">
<g clip-path="url(#clip0_11_270)">
<path d="M39.3119 22.6406V15.4841H36.3711V11.3371H39.4596L40.4885 7.42528H44.8258V11.3371H50.0461V15.4841H44.8258V22.0726C44.8258 23.5446 45.3781 23.7109 47.7666 23.7109H50.0461V27.8916C49.1631 28.0596 47.7297 28.2259 46.444 28.2259C41.6283 28.2259 39.3119 26.6212 39.3119 22.6406Z" fill="#16144A"/>
<path d="M52.6211 28.1588V11.3371H57.7305V14.0458H57.9504C58.8703 12.3403 60.5236 11.0027 63.1337 11.0027C66.9943 11.0027 68.4278 13.6106 68.4278 16.988V18.5272H62.9508V17.6248C62.9508 15.8185 62.3264 15.2505 60.5974 15.2505C58.8685 15.2505 58.0981 15.7849 58.0981 17.6248V28.1588H52.6211Z" fill="#16144A"/>
<path d="M69.9368 19.7975C69.9368 14.4138 73.4668 11.0027 79.2375 11.0027C85.0083 11.0027 88.0598 14.0122 88.0598 18.3928C88.0598 19.3287 87.9121 20.2983 87.803 20.8679H75.1201C75.2309 23.2086 76.2598 24.1445 79.2744 24.1445C81.48 24.1445 82.4368 23.7094 82.4368 22.6726V22.4726H87.8769V22.807C87.8769 26.3844 84.4947 28.4915 79.2006 28.4915C72.8406 28.4915 69.9368 25.1141 69.9368 19.7975ZM75.157 17.8248H82.7675C82.8783 16.0857 81.6278 15.1161 79.0546 15.1161C76.4814 15.1161 75.3786 16.0521 75.157 17.8248Z" fill="#16144A"/>
<path d="M90.2671 19.7655C90.2671 14.449 93.2448 11.0043 98.2822 11.0043C101.112 11.0043 102.804 12.1419 103.65 13.5466H103.87V5.75494H109.347V28.1604H104.238V25.6853H104.053C103.098 27.4916 101.001 28.4947 98.2804 28.4947C93.0602 28.4947 90.2654 25.0501 90.2654 19.7671L90.2671 19.7655ZM99.8247 24.2133C102.435 24.2133 103.868 23.3766 103.868 21.1031V18.3944C103.868 16.1209 102.435 15.2841 99.8247 15.2841C96.6271 15.2841 95.7442 16.6889 95.7442 19.7655C95.7442 22.8422 96.6271 24.2133 99.8247 24.2133Z" fill="#16144A"/>
<path d="M112.618 22.0054V11.3371H118.095V21.0023C118.095 23.343 118.978 24.1797 121.735 24.1797C124.491 24.1797 125.521 23.4102 125.521 20.8695V11.3387H130.998V28.1604H125.889V25.2181H125.704C124.675 27.1572 122.727 28.4947 119.492 28.4947C114.639 28.4947 112.617 25.5861 112.617 22.007L112.618 22.0054Z" fill="#16144A"/>
<path d="M0 17.772H18.4221C20.8915 17.772 22.8948 15.9497 22.8948 13.7034C22.8948 11.4571 20.8915 9.63477 18.4221 9.63477H4.47272C2.00332 9.63477 0 11.4571 0 13.7034V17.772Z" fill="#46AEE2"/>
<path d="M11.4464 8.48603C14.0225 8.48603 16.1109 6.58637 16.1109 4.24301C16.1109 1.89966 14.0225 0 11.4464 0C8.87032 0 6.78198 1.89966 6.78198 4.24301C6.78198 6.58637 8.87032 8.48603 11.4464 8.48603Z" fill="#FACB13"/>
<path d="M16.0405 18.9416H6.78198C6.78198 27.5876 13.7751 34.7457 22.8947 36V27.3844C18.9268 26.2756 16.0423 22.9142 16.0423 18.9432L16.0405 18.9416Z" fill="#374B9D"/>
</g>
<defs>
<clipPath id="clip0_11_270">
<rect width="131" height="36" fill="white"/>
</clipPath>
</defs>
</svg>
