<svg width="143" height="51" viewBox="0 0 143 51" fill="none" xmlns="http://www.w3.org/2000/svg">
<path d="M22.9566 24.6832H9.11863L9.58564 22.6904C10.0464 20.7268 11.4129 19.3928 12.955 19.3928H26.2194C27.5954 19.3928 28.5983 21.1187 28.2504 22.8905L27.0468 29.0398C26.6425 31.1076 25.2384 32.5542 23.6305 32.5542H12.3L10.8676 40H6L7.91819 30.8658C8.34446 28.8355 9.73609 27.4347 11.3189 27.4347H22.4457L22.9566 24.6832Z" fill="#222222"/>
<path d="M30.8451 19.3927L27.4193 36.3979C27.062 38.1698 28.0681 39.9124 29.4472 39.9124H43.2319C44.8366 39.9124 46.2408 38.4699 46.6483 36.4021L49.9988 19.3468H48.2092C46.6013 19.3468 45.1971 20.7893 44.7928 22.8571L42.4577 34.747H32.2148L34.6846 22.9113C35.0576 21.1228 34.0421 19.3593 32.6473 19.3718L30.8451 19.3927Z" fill="#222222"/>
<path d="M70.1651 19.4344H54.7005C53.1208 19.4344 51.7323 20.831 51.3029 22.853L50.9487 24.5164H66.3914C67.9523 24.5164 69.3252 23.1573 69.7734 21.1687L70.1651 19.4344Z" fill="#222222"/>
<path d="M50.4722 27.0095L50.1337 28.5604C49.7451 30.3447 50.7512 32.129 52.1491 32.129H63.3542L62.718 34.793H52.0237C50.491 34.793 49.1339 36.1104 48.6637 38.049L48.2124 39.9125H63.8871C65.4887 39.9125 66.8866 38.4826 67.3003 36.4231L68.4757 30.5531C68.8298 28.7813 67.8269 27.0429 66.4509 27.0429L50.4722 27.0095Z" fill="#222222"/>
<path d="M72.8077 19.3511L68.6704 39.7874H73.1556L74.8418 31.537H83.1446L81.5242 39.7457H86.0407L88.4886 27.2638H75.638L77.2929 19.3928L72.8077 19.3511Z" fill="#222222"/>
<path d="M85.6265 19.2634L84.7363 23.9619H89.2215L90.0803 19.351L85.6265 19.2634Z" fill="#222222"/>
<path d="M90.0811 19.351H104.48C104.966 19.351 105.317 19.968 105.185 20.5892C105.098 21.0103 104.809 21.298 104.48 21.298H99.3398L98.7976 23.9619H104.565C105.89 23.9619 107.034 22.7154 107.295 20.9853C107.639 18.6923 106.32 16.5578 104.565 16.5578H90.5575L90.0811 19.351Z" fill="#23B67C"/>
<path d="M130.893 10H88.9024L88.2035 13.0058H105.414C108.15 13.0058 109.836 14.1064 110.282 17.6626C110.727 21.2187 107.99 24.1787 107.99 24.1787C107.99 24.1787 110.407 25.913 110.153 29.9319C109.899 33.9508 107.385 37.211 102.581 37.211H90.5887L91.4161 33.5297H104.565C105.828 33.5297 106.931 32.3833 107.235 30.7532C107.668 28.4436 106.354 26.209 104.565 26.209H98.4119L97.6816 28.7062H104.634C105.104 28.7062 105.455 29.2732 105.367 29.886C105.298 30.353 104.991 30.6948 104.634 30.6948H89.9493L87.7866 39.9208H102.515C106.906 39.9208 109.26 38.4408 110.946 34.843C112.632 31.2451 112.823 27.4389 110.977 23.7576C112.378 21.3021 112.09 19.3135 112.09 19.3135H115.654L113.347 29.3858C112.153 34.6053 115.086 39.8791 119.189 39.8791H125.759C129.482 39.8791 132.78 36.6898 133.93 31.9789L136.694 20.6351C137.983 15.3822 135.039 10 130.893 10ZM134.842 19.6012L132.231 30.6573C131.332 34.4678 128.677 37.0609 125.674 37.0609H118.895C116.34 37.0609 114.51 33.7924 115.234 30.5364L117.691 19.5428H120.603L117.964 31.3494C117.71 32.4875 118.352 33.634 119.246 33.634H125.358C127.241 33.634 128.906 31.9997 129.46 29.6067L131.952 18.8633C132.219 17.721 131.576 16.562 130.676 16.562H112.159C112.159 16.562 112.541 15.3571 111.062 13.0058H131.2C133.776 13.0017 135.613 16.3327 134.842 19.6012ZM122.22 21.6606C122.518 20.3849 123.405 19.5178 124.408 19.5178H129.752L127.589 28.6228C127.285 29.8986 126.392 30.7657 125.383 30.7532L120.111 30.6907L122.22 21.6606Z" fill="#23B67C"/>
</svg>
